<svg xmlns="http://www.w3.org/2000/svg" xmlns:xlink="http://www.w3.org/1999/xlink" viewBox="0,0,256,256" width="32px" height="32px"><g transform=""><g fill="none" fill-rule="nonzero" stroke="#000000" stroke-width="32" stroke-linecap="butt" stroke-linejoin="miter" stroke-miterlimit="10" stroke-dasharray="" stroke-dashoffset="0" font-family="none" font-weight="none" font-size="none" text-anchor="none" style="mix-blend-mode: normal"><path d="M128,230.00749c-56.33718,0 -102.00749,-45.67031 -102.00749,-102.00749v0c0,-56.33718 45.67031,-102.00749 102.00749,-102.00749v0c56.33718,0 102.00749,45.67031 102.00749,102.00749v0c0,56.33718 -45.67031,102.00749 -102.00749,102.00749z" id="shape"></path></g><g fill="#000000" fill-rule="nonzero" stroke="none" stroke-width="1" stroke-linecap="butt" stroke-linejoin="miter" stroke-miterlimit="10" stroke-dasharray="" stroke-dashoffset="0" font-family="none" font-weight="none" font-size="none" text-anchor="none" style="mix-blend-mode: normal"><g transform="translate(1.6,0.73125) scale(8,8)"><path d="M16,4c-6.59088,0 -12,5.13481 -12,11.5c0,3.39002 1.57132,6.4125 4,8.51172v4.60547l4.44336,-2.21875c1.12887,0.34086 2.3033,0.60156 3.55664,0.60156c6.59089,0 12,-5.13481 12,-11.5c0,-6.36519 -5.40911,-11.5 -12,-11.5zM16,6c5.55911,0 10,4.26719 10,9.5c0,5.23281 -4.44089,9.5 -10,9.5c-1.19571,0 -2.33807,-0.20949 -3.4082,-0.57812l-0.39649,-0.13672l-2.19531,1.09766v-2.26758l-0.38086,-0.30078c-2.22011,-1.75028 -3.61914,-4.37286 -3.61914,-7.31445c0,-5.23281 4.44089,-9.5 10,-9.5zM14.86133,12.35742l-6.01562,6.37305l5.41016,-3.02734l2.88281,3.09766l5.94531,-6.44336l-5.27148,2.95508z"></path></g></g></g></svg>